<?xml version="1.0" encoding="utf-8"?>
<!-- Generator: Adobe Illustrator 24.2.3, SVG Export Plug-In . SVG Version: 6.00 Build 0)  -->
<svg version="1.1" id="Layer_1" xmlns="http://www.w3.org/2000/svg" xmlns:xlink="http://www.w3.org/1999/xlink" x="0px" y="0px"
	 viewBox="0 0 1080 460" style="enable-background:new 0 0 1080 460;" xml:space="preserve">
<style type="text/css">
	.st0{fill:#070707;}
	.st1{font-family:'OPTIBodoni-Antiqua';}
	.st2{font-size:175.5923px;}
	.st3{font-size:160.598px;}
	.st4{fill:url(#SVGID_1_);}
</style>
<g>
	<text transform="matrix(1 0 0 1 182.9983 285.0759)" class="st0 st1 st2">J</text>
	<text transform="matrix(1 0 0 1 240.9192 290.8142)" class="st0 st1 st3">u</text>
	<text transform="matrix(1 0 0 1 329.0974 291.3308)" class="st0 st1 st3">s</text>
	<text transform="matrix(1 0 0 1 375.7244 292.5408)" class="st0 st1 st3">t</text>
	<text transform="matrix(1 0 0 1 582.3225 298.4656)" class="st0 st1 st3">C</text>
	<text transform="matrix(1 0 0 1 675.2161 298.4656)" class="st0 st1 st3">l</text>
	<text transform="matrix(1 0 0 1 717.9778 298.4646)" class="st0 st1 st3">i</text>
	<text transform="matrix(1 0 0 1 752.9573 296.0427)" class="st0 st1 st3">c</text>
	<text transform="matrix(1 0 0 1 809.4758 297.2546)" class="st0 st1 st3">k</text>
	<linearGradient id="SVGID_1_" gradientUnits="userSpaceOnUse" x1="440.6038" y1="223.6338" x2="591.947" y2="223.6338">
		<stop  offset="0" style="stop-color:#002D5D"/>
		<stop  offset="1" style="stop-color:#002D5D"/>
	</linearGradient>
	<path class="st4" d="M575.7,291.5l-18.6-45.2l-2-4.8L521,158.7v0l-3.2-7.7h-3.8l-8.7,20.3l-30.3,70.3l-2.1,4.8l-19.5,45.2h-12.9
		v4.8h44.8v-4.8h-21.6l19.5-45.2h53l18.6,45.2h-18.3v4.8h55.4v-4.8H575.7z M485.3,241.5l25-58.1l23.9,58.1H485.3z"/>
</g>
</svg>
